<svg viewBox="0 0 47 47" xmlns="http://www.w3.org/2000/svg" fill-rule="evenodd" clip-rule="evenodd" stroke-linecap="round" stroke-linejoin="round" stroke-miterlimit="1.5"><circle cx="25" cy="25" r="25" fill="none" stroke="#000" stroke-width="2.22" transform="matrix(.9 0 0 .9 1 1)"/><path d="M37.61 31.5c0 .36-.06.82-.2 1.39a7.77 7.77 0 0 1-.4 1.33c-.27.66-1.07 1.35-2.38 2.07a7.57 7.57 0 0 1-4.66.93 15.92 15.92 0 0 1-3.13-.93l-.96-.35c-1.28-.45-2.42-1-3.42-1.62a28.97 28.97 0 0 1-5.17-4.2 28.97 28.97 0 0 1-4.2-5.17c-.63-1-1.17-2.15-1.63-3.42l-.35-.96-.4-1.08a15.92 15.92 0 0 1-.53-2.05 7.57 7.57 0 0 1 .93-4.66c.73-1.32 1.42-2.11 2.07-2.38.33-.15.77-.28 1.34-.41.57-.13 1.02-.2 1.38-.2.18 0 .31.02.4.06.24.08.59.57 1.04 1.48l.59 1.06a100.84 100.84 0 0 0 1.29 2.28l.34.5c.19.26.33.5.42.68.09.2.13.38.13.56 0 .26-.18.59-.55.98-.37.39-.78.75-1.21 1.07-.44.33-.84.67-1.21 1.04-.38.36-.56.66-.56.9 0 .11.03.26.1.44a4.26 4.26 0 0 0 .44.86l.22.38a20.5 20.5 0 0 0 3.4 4.59 20.5 20.5 0 0 0 4.96 3.62 4.26 4.26 0 0 0 .87.44c.18.06.32.1.44.1.23 0 .53-.19.9-.56.36-.37.7-.78 1.03-1.21.33-.44.69-.84 1.08-1.21.39-.37.71-.56.97-.56.19 0 .37.05.56.14.19.09.42.23.7.42l.48.34a42.08 42.08 0 0 0 2.29 1.29l1.05.58c.91.46 1.4.8 1.49 1.04.03.09.05.23.05.4z" fill-rule="nonzero"/></svg>